<svg xmlns="http://www.w3.org/2000/svg" viewBox="0 0 32 32" aria-hidden="true">
  <circle cx="16" cy="16" r="16" fill="#25d366"/>
  <path fill="#fff" d="M8.7 24.1l1.1-4A7.8 7.8 0 1 1 16.6 24c-1.3 0-2.5-.3-3.6-.9l-4.3 1Zm4.5-3.1.3.2c.9.6 2 .9 3.1.9a5.9 5.9 0 1 0-5-2.7l.2.3-.6 2 2-.7Z"/>
  <path fill="#fff" d="M19.8 17.4c-.3-.2-1.7-.8-2-.9-.3-.1-.5-.2-.7.2-.2.3-.8.9-.9 1.1-.2.2-.3.2-.6.1-.3-.2-1.1-.4-2.1-1.3-.8-.7-1.3-1.5-1.5-1.8-.2-.3 0-.5.1-.6l.4-.5c.1-.2.2-.3.3-.5.1-.2 0-.4 0-.5-.1-.2-.7-1.7-1-2.3-.3-.6-.5-.5-.7-.5h-.6c-.2 0-.5.1-.8.4-.3.3-1 1-1 2.4s1 2.8 1.2 3c.2.2 2 3.1 4.9 4.3.7.3 1.2.5 1.6.6.7.2 1.3.2 1.8.1.5-.1 1.7-.7 1.9-1.4.2-.7.2-1.3.2-1.4-.1-.2-.2-.3-.5-.4Z" transform="scale(.72) translate(7 5)"/>
</svg>
