<svg xmlns="http://www.w3.org/2000/svg" viewBox="0 0 32 32" aria-hidden="true">
  <circle cx="16" cy="16" r="16" fill="#111"/>
  <path fill="#25f4ee" d="M14.7 24.1a5.1 5.1 0 0 1 0-10.2h.7v3.2h-.7a1.9 1.9 0 1 0 1.9 1.9V7.5h3.1c.2 1.9 1.6 3.5 3.5 3.8v3.2a7 7 0 0 1-3.4-1v5.4a5.1 5.1 0 0 1-5.1 5.2Z"/>
  <path fill="#fe2c55" d="M15.8 24.1a5.1 5.1 0 0 1 0-10.2h.7v3.2h-.7a1.9 1.9 0 1 0 1.9 1.9V7.5h3.1c.2 1.9 1.6 3.5 3.5 3.8v3.2a7 7 0 0 1-3.4-1v5.4a5.1 5.1 0 0 1-5.1 5.2Z" opacity=".75"/>
  <path fill="#fff" d="M15.2 23.1a4.5 4.5 0 0 1 0-9h.8v3.1h-.8a1.4 1.4 0 1 0 1.4 1.4V7.5h3.1c.2 1.7 1.6 3 3.2 3.4v3.1a7.2 7.2 0 0 1-3.2-.9v5.5a4.5 4.5 0 0 1-4.5 4.5Z"/>
</svg>
